<?xml version="1.0" standalone="no"?>
<!DOCTYPE svg PUBLIC "-//W3C//DTD SVG 20010904//EN"
 "http://www.w3.org/TR/2001/REC-SVG-20010904/DTD/svg10.dtd">
<svg version="1.0" xmlns="http://www.w3.org/2000/svg"
 width="1024.000000pt" height="1024.000000pt" viewBox="0 0 1024.000000 1024.000000"
 preserveAspectRatio="xMidYMid meet">
<metadata>
Created by potrace 1.14, written by Peter Selinger 2001-2017
</metadata>
<g transform="translate(0.000000,1024.000000) scale(0.100000,-0.100000)"
fill="#000000" stroke="none">
<path d="M3335 7425 c-5 -2 -55 -6 -110 -8 -55 -3 -110 -8 -122 -10 -12 -3
-53 -9 -90 -12 -66 -6 -278 -57 -312 -74 -9 -5 -34 -12 -55 -15 -21 -4 -45
-14 -53 -22 -8 -8 -28 -14 -44 -14 -32 0 -40 -16 -11 -23 9 -3 1 -5 -18 -6
-24 -1 -31 -4 -21 -10 8 -5 9 -11 3 -15 -6 -3 -13 -2 -16 3 -9 14 -46 1 -46
-16 0 -10 -6 -13 -17 -9 -9 4 -20 1 -25 -6 -8 -11 -11 -10 -15 0 -4 10 -11 5
-24 -15 -10 -15 -19 -22 -19 -15 0 6 -9 12 -20 12 -25 0 -27 -20 -2 -21 14 0
14 -2 -3 -8 -11 -5 -25 -4 -32 1 -10 8 -13 3 -14 -18 -1 -17 -3 -22 -6 -11 -3
10 -14 17 -28 17 -32 0 -41 -18 -13 -23 14 -2 9 -4 -12 -4 -74 0 -82 -2 -76
-18 3 -9 1 -15 -7 -14 -6 1 -28 0 -47 -1 l-35 -3 35 -7 35 -7 -36 -2 c-27 -1
-39 -7 -49 -25 -12 -23 -39 -37 -87 -42 -13 -2 -31 -7 -40 -13 -16 -9 -16 -10
-1 -11 9 0 19 -4 22 -9 3 -5 -8 -8 -24 -7 -17 1 -30 -2 -30 -6 0 -5 -12 -1
-27 9 -21 14 -25 14 -21 3 6 -19 -15 -40 -41 -40 -12 0 -21 -4 -21 -10 0 -5
-12 -10 -27 -10 -23 0 -25 -2 -13 -11 11 -8 7 -9 -16 -4 -27 5 -33 3 -39 -17
-4 -13 -8 -30 -9 -38 0 -8 -9 -14 -18 -12 -11 2 -18 -3 -18 -13 0 -8 -5 -15
-11 -15 -6 0 -9 7 -5 15 8 21 -8 19 -35 -6 l-24 -20 25 6 c22 5 23 4 7 -5 -10
-7 -24 -9 -32 -6 -7 2 -16 -2 -19 -10 -3 -8 -9 -13 -13 -12 -4 1 -27 -10 -50
-25 -24 -15 -47 -27 -53 -27 -5 0 -10 -7 -10 -16 0 -11 -6 -14 -20 -9 -13 4
-20 2 -20 -7 0 -11 -2 -10 -9 0 -7 12 -12 12 -30 1 -11 -8 -21 -17 -21 -21 0
-5 -6 -8 -12 -8 -7 0 -24 -6 -38 -13 -22 -11 -116 -49 -130 -53 -3 0 -18 -6
-33 -12 -16 -7 -33 -12 -38 -12 -5 0 -12 -6 -15 -14 -3 -8 -12 -12 -20 -9 -8
3 -14 -1 -14 -11 0 -9 -8 -16 -20 -16 -11 0 -20 -5 -20 -12 0 -6 -3 -8 -7 -5
-3 4 -15 0 -25 -10 -10 -9 -18 -13 -18 -9 0 3 -14 -7 -31 -24 -17 -16 -40 -32
-50 -35 -11 -4 -19 -11 -19 -16 0 -5 -8 -9 -17 -7 -10 2 -18 -3 -18 -12 -1 -8
-6 -14 -13 -12 -7 1 -12 -5 -12 -13 0 -8 -4 -15 -9 -15 -5 0 -17 -3 -26 -6
-15 -6 -15 -4 -4 15 8 11 18 21 23 21 18 0 76 75 74 95 -2 15 -13 22 -48 27
-72 11 -149 25 -235 43 -44 9 -102 20 -130 25 -27 4 -86 15 -129 24 -104 21
-152 30 -223 42 l-43 7 0 -86 c0 -73 3 -86 18 -91 14 -5 166 -34 212 -41 8 -1
35 -7 59 -14 25 -7 65 -17 90 -21 26 -5 73 -13 106 -19 82 -15 135 -26 178
-38 18 -5 24 -33 7 -33 -5 0 -7 -6 -4 -13 2 -7 -7 -19 -21 -27 -14 -7 -25 -17
-25 -22 0 -5 -21 -35 -47 -67 -27 -31 -58 -70 -70 -87 -12 -16 -37 -50 -57
-77 -20 -26 -36 -51 -36 -56 0 -4 -11 -21 -25 -37 -14 -16 -25 -35 -25 -41 0
-7 -4 -13 -10 -13 -5 0 -10 -6 -10 -13 0 -8 -12 -32 -28 -53 -15 -21 -36 -59
-47 -84 -10 -25 -29 -69 -42 -97 -60 -139 -164 -480 -203 -670 -20 -99 -20
-124 -16 -770 3 -368 5 -701 5 -741 0 -40 5 -88 11 -107 28 -86 235 -207 434
-255 128 -31 218 -50 256 -56 19 -3 55 -12 80 -20 25 -9 83 -20 130 -25 47 -5
92 -12 100 -14 8 -3 134 -25 280 -50 286 -48 286 -48 405 -70 44 -8 130 -22
190 -31 61 -9 130 -20 155 -24 53 -9 150 -23 350 -51 80 -11 183 -27 230 -35
108 -18 193 -30 300 -44 47 -6 155 -20 240 -31 85 -11 169 -22 185 -24 46 -5
197 -25 225 -31 14 -2 77 -11 140 -18 127 -16 309 -39 470 -61 58 -8 150 -19
205 -25 55 -6 127 -15 160 -20 33 -5 87 -12 120 -15 81 -7 201 -21 450 -50
337 -39 657 -73 1000 -105 302 -27 374 -35 605 -61 52 -6 129 -12 170 -15 73
-4 294 -21 375 -30 22 -2 108 -8 190 -14 241 -18 257 -19 330 -32 88 -16 508
-16 695 0 226 20 745 125 832 169 15 7 30 13 33 13 6 0 125 54 193 87 29 15
78 51 109 80 32 29 59 53 61 53 10 0 81 80 112 126 19 27 50 66 70 88 19 21
51 57 72 79 20 22 42 51 50 65 13 25 21 36 81 101 15 16 27 32 27 35 0 5 18
29 45 60 6 6 22 30 38 53 l27 43 0 1072 c-1 1036 -1 1075 -20 1143 -11 39 -25
90 -30 115 -32 132 -116 364 -156 428 -8 12 -11 22 -7 22 5 0 4 4 -2 8 -5 4
-26 39 -45 77 -18 39 -37 72 -40 75 -3 3 -35 43 -70 90 -72 94 -200 230 -217
230 -7 0 -15 9 -18 20 -3 11 -13 20 -20 20 -8 0 -19 9 -25 19 -5 11 -19 23
-30 26 -11 3 -20 13 -20 21 0 8 -7 14 -15 14 -8 0 -15 5 -15 10 0 6 -7 10 -15
10 -8 0 -15 5 -15 11 0 5 -4 7 -10 4 -5 -3 -10 -1 -10 4 0 6 -4 11 -10 11 -5
0 -19 9 -30 20 -12 12 -25 18 -30 15 -4 -3 -17 6 -28 20 -11 13 -21 22 -24 20
-2 -2 -17 7 -32 20 -16 14 -34 25 -39 25 -6 0 -25 11 -43 25 -18 14 -39 25
-47 25 -8 0 -27 11 -43 25 -16 14 -37 25 -47 25 -10 0 -27 9 -39 20 -11 10
-34 22 -49 25 -16 4 -29 10 -29 15 0 5 -15 12 -32 15 -18 4 -53 16 -78 27
-135 58 -154 65 -215 73 -27 4 -58 13 -69 21 -11 8 -35 14 -53 14 -17 0 -62 6
-100 14 -37 8 -104 18 -148 21 -44 4 -84 10 -89 13 -6 3 -48 9 -95 14 -47 4
-129 12 -181 18 -52 5 -122 12 -155 15 -33 3 -96 10 -140 15 -44 5 -107 12
-140 16 -33 3 -76 8 -95 10 -48 6 -92 11 -180 19 -41 3 -95 8 -120 10 -25 2
-76 9 -115 14 -61 9 -152 17 -380 36 -33 3 -109 9 -170 14 -60 6 -152 13 -204
16 -52 3 -97 7 -100 10 -6 3 -271 23 -526 40 -151 9 -506 35 -625 45 -69 5
-206 15 -305 20 -99 6 -207 13 -240 15 -33 2 -100 7 -150 11 -49 3 -110 7
-135 9 -25 2 -117 7 -205 13 -88 6 -176 11 -195 10 -19 0 -114 3 -210 5 -96 3
-179 4 -185 2z m-1164 -348 c-1 -4 -1 -14 -1 -24 0 -22 -13 -8 -17 18 -2 12 2
19 8 17 6 -2 10 -7 10 -11z m56 -33 c-3 -3 -12 -4 -19 -1 -8 3 -5 6 6 6 11 1
17 -2 13 -5z m508 -100 c79 -6 172 -15 195 -19 14 -3 84 -9 155 -15 154 -13
210 -18 250 -25 53 -9 347 -36 445 -41 151 -8 331 -22 380 -30 25 -4 50 -8 55
-9 170 -21 194 -22 207 -2 6 9 8 8 8 -3 1 -11 4 -10 15 4 15 19 15 19 15 -1 0
-23 5 -25 155 -39 39 -3 84 -8 100 -10 27 -3 118 -10 245 -19 25 -2 63 -5 85
-8 61 -8 183 -19 250 -23 65 -4 220 -18 385 -35 58 -6 123 -12 145 -14 96 -8
364 -35 404 -41 25 -4 38 -10 31 -14 -14 -9 -98 -7 -247 5 -89 7 -103 6 -103
-7 0 -13 -17 -15 -114 -13 -63 2 -120 6 -126 10 -7 4 -15 3 -19 -3 -6 -10 -56
-17 -88 -13 -6 0 -9 10 -6 22 5 17 11 20 37 15 57 -12 87 -13 92 -4 3 4 9 6
14 3 5 -3 11 -1 15 5 3 5 0 11 -7 11 -7 1 -22 3 -33 4 -11 2 -62 6 -113 9 -52
3 -98 8 -103 11 -5 3 -64 8 -132 10 -68 3 -148 9 -177 15 -44 8 -58 7 -78 -6
-22 -14 -46 -16 -171 -11 -80 4 -166 2 -191 -2 -25 -5 -49 -6 -55 -3 -5 4 -18
5 -29 3 -11 -1 -16 2 -12 8 4 7 -1 11 -13 11 -12 0 -21 7 -21 15 0 8 5 15 10
15 6 0 10 -5 10 -11 0 -5 5 -7 10 -4 6 4 17 2 25 -5 7 -6 16 -7 19 -2 3 5 24
9 48 10 90 4 53 19 -64 27 -68 4 -141 10 -163 12 -99 11 -225 13 -225 4 0 -6
-68 -7 -172 -4 -95 3 -198 1 -228 -4 -31 -5 -61 -8 -68 -5 -18 6 -4 22 19 22
11 0 19 7 19 16 0 8 5 12 10 9 6 -3 10 -1 10 4 0 6 -8 11 -18 11 -10 0 -23 5
-29 11 -6 6 -35 12 -64 14 -30 2 -86 6 -125 10 -51 5 -74 3 -79 -5 -4 -7 -2
-16 5 -20 9 -6 6 -12 -13 -25 -26 -17 -27 -51 -1 -41 11 4 13 -3 9 -34 -4 -33
-2 -40 12 -40 21 0 12 -9 -15 -15 -19 -3 -20 -1 -12 21 8 20 6 24 -8 25 -9 0
-28 14 -42 32 -13 18 -17 26 -8 19 26 -21 32 4 9 37 -18 25 -19 30 -5 35 9 3
25 6 37 6 45 1 -11 21 -60 22 -27 0 -56 4 -65 10 -11 5 -18 5 -18 -1 0 -5 6
-11 13 -14 36 -13 -19 -21 -146 -22 -113 0 -141 3 -139 13 1 8 -2 11 -8 7 -6
-3 -8 -11 -4 -16 3 -6 -27 -9 -80 -8 -47 1 -83 5 -80 10 3 5 -1 9 -9 9 -9 0
-14 9 -13 23 1 17 7 23 26 24 23 2 23 1 5 -7 -23 -10 -5 -13 20 -4 26 10 -3
24 -52 24 -23 0 -43 4 -45 8 -4 12 -78 2 -78 -9 0 -5 9 -9 20 -9 11 0 20 -4
20 -10 0 -6 -9 -6 -25 0 -24 9 -42 -1 -32 -17 3 -5 -15 -9 -40 -11 -38 -2 -44
0 -40 13 4 8 2 15 -2 15 -5 0 -11 -7 -15 -15 -6 -16 -30 -15 -78 3 -32 13 -45
32 -28 42 8 5 1 11 -19 18 -17 6 -31 15 -31 20 0 25 14 25 245 6z m-275 -44
c0 -5 -2 -10 -4 -10 -3 0 -8 5 -11 10 -3 6 -1 10 4 10 6 0 11 -4 11 -10z m384
-35 c-7 -16 -24 -21 -24 -6 0 8 7 13 27 20 1 1 0 -6 -3 -14z m-535 -34 c21
-13 -4 -51 -34 -51 -29 0 -50 31 -33 48 14 14 47 15 67 3z m2341 -11 c0 -5 -7
-10 -16 -10 -8 0 -12 5 -9 10 3 6 10 10 16 10 5 0 9 -4 9 -10z m-1501 -59 c22
-14 5 -41 -27 -41 -30 0 -52 16 -52 37 0 15 57 18 79 4z m538 -28 c-11 -10
-26 8 -20 23 5 15 7 14 15 -1 6 -9 7 -19 5 -22z m-921 0 c-11 -11 -48 -14 -41
-3 3 5 16 10 27 10 12 0 18 -3 14 -7z m104 -5 c0 -4 -12 -8 -26 -8 -14 0 -23
4 -20 8 2 4 14 8 25 8 12 0 21 -4 21 -8z m2667 6 c-3 -3 -12 -4 -19 -1 -8 3
-5 6 6 6 11 1 17 -2 13 -5z m-1247 -12 c0 -4 -9 -8 -19 -8 -11 0 -17 4 -15 8
3 4 12 8 20 8 8 0 14 -4 14 -8z m1077 2 c-3 -3 -12 -4 -19 -1 -8 3 -5 6 6 6
11 1 17 -2 13 -5z m-2963 -10 c9 -3 16 -17 16 -30 0 -19 -5 -24 -26 -24 -27 0
-84 34 -84 51 0 10 69 12 94 3z m-335 -20 c3 -3 -3 -12 -14 -20 -17 -13 -20
-13 -26 3 -4 13 -8 10 -17 -15 l-11 -32 -25 24 c-15 13 -26 31 -26 41 0 16 7
17 57 11 31 -4 59 -9 62 -12z m506 4 c14 -6 25 -17 25 -24 0 -17 -28 -44 -45
-44 -21 0 -45 29 -45 56 0 27 22 32 65 12z m179 -14 c9 -3 16 -14 16 -23 0
-42 -59 -56 -84 -19 -14 19 -14 23 2 34 19 15 42 17 66 8z m1241 -19 c0 -27
-40 -32 -66 -9 -29 26 -23 35 24 32 34 -2 42 -7 42 -23z m-945 0 c8 -3 51 -7
95 -9 67 -3 175 -16 353 -42 38 -6 52 -29 29 -51 -13 -13 -25 -14 -79 -4 -36
6 -89 11 -118 11 -30 0 -92 4 -139 10 -47 5 -138 14 -201 19 -63 5 -123 13
-133 16 -21 9 -22 29 -1 50 14 13 31 15 98 10 44 -3 88 -8 96 -10z m-580 -9
c0 -8 -4 -17 -9 -21 -12 -7 -24 12 -16 25 9 15 25 12 25 -4z m2756 -7 c3 -5
17 -9 32 -9 24 0 25 -2 11 -15 -14 -14 -20 -14 -58 0 -33 11 -47 12 -57 4 -11
-9 -14 -8 -14 4 0 10 -6 14 -15 11 -8 -4 -15 -3 -15 0 0 21 103 25 116 5z
m-2576 -3 c0 -16 -18 -31 -27 -22 -8 8 5 36 17 36 5 0 10 -6 10 -14z m180 -2
c0 -13 -21 -44 -30 -44 -15 0 -12 37 3 43 17 8 27 8 27 1z m2594 -34 c-47 -7
-73 6 -48 25 13 9 24 8 51 -4 l35 -16 -38 -5z m-114 15 c0 -8 -7 -15 -16 -15
-14 0 -14 3 -4 15 7 8 14 15 16 15 2 0 4 -7 4 -15z m-450 -25 c13 -9 13 -12
-3 -25 -24 -17 -77 1 -77 26 0 12 61 11 80 -1z m1552 -5 c32 -4 60 -11 64 -16
3 -6 -10 -7 -33 -3 -35 5 -73 9 -133 13 -20 1 -22 3 -10 11 8 5 24 7 35 5 11
-2 46 -7 77 -10z m234 -19 c67 -3 133 -10 148 -16 15 -5 32 -8 37 -4 5 3 9 0
9 -7 0 -8 -15 -10 -50 -7 -27 3 -47 1 -44 -3 2 -4 0 -10 -6 -14 -6 -4 -8 -9
-6 -13 2 -4 -19 -5 -47 -3 -45 3 -49 5 -33 16 10 8 25 11 33 8 11 -4 14 -2 11
8 -3 8 -16 13 -32 11 -14 -1 -26 1 -26 5 0 5 -20 7 -45 5 -52 -5 -95 4 -95 18
0 5 6 7 13 5 6 -2 66 -6 133 -9z m-4859 -12 c-3 -3 -12 -4 -19 -1 -8 3 -5 6 6
6 11 1 17 -2 13 -5z m3403 -10 c0 -8 -4 -12 -10 -9 -5 3 -10 10 -10 16 0 5 5
9 10 9 6 0 10 -7 10 -16z m1768 -9 c13 -12 -11 -16 -57 -10 -31 4 -49 11 -45
17 6 10 91 4 102 -7z m-3191 -10 c8 -9 12 -19 9 -23 -4 -3 -11 0 -17 8 -7 13
-10 13 -18 1 -10 -16 -26 3 -16 19 9 14 24 12 42 -5z m3408 0 c50 -3 135 -10
190 -14 55 -5 107 -9 115 -9 89 -2 304 -27 321 -38 19 -11 8 -24 -20 -24 -29
0 -49 -24 -31 -35 15 -10 12 -25 -6 -25 -9 0 -12 5 -8 12 5 7 3 8 -6 3 -7 -4
-15 -2 -19 4 -4 6 -37 14 -72 16 -35 2 -109 6 -164 10 -55 3 -125 10 -155 15
-30 5 -77 9 -105 10 -115 3 -135 5 -135 13 0 5 -7 7 -15 3 -8 -3 -35 1 -60 8
-25 8 -47 11 -49 7 -3 -4 -17 -6 -33 -5 -40 2 -43 3 -43 13 0 10 36 21 44 14
3 -3 23 -7 46 -9 22 -2 43 -4 47 -5 30 -5 113 3 113 10 0 5 -36 12 -80 16 -45
4 -77 11 -74 16 3 6 29 8 57 5 29 -3 93 -8 142 -11z m-1438 -30 c3 -9 -2 -22
-13 -30 -21 -16 -58 -20 -49 -6 3 6 -4 15 -15 21 -33 18 -23 30 25 30 32 0 47
-5 52 -15z m1043 5 c0 -5 -7 -7 -15 -4 -8 4 -15 8 -15 10 0 2 7 4 15 4 8 0 15
-4 15 -10z m90 -5 c0 -8 -4 -15 -10 -15 -5 0 -10 4 -10 10 0 5 -6 7 -14 4 -8
-3 -17 -1 -21 5 -4 7 5 11 24 11 21 0 31 -5 31 -15z m-2258 -35 c28 0 34 -7
20 -25 -11 -15 -34 -17 -43 -4 -6 10 -11 10 -23 0 -20 -17 -46 -7 -46 18 0 21
37 34 55 19 5 -4 22 -8 37 -8z m3258 -16 c0 -2 -11 -4 -25 -4 -14 0 -25 4 -25
9 0 4 11 6 25 3 14 -2 25 -6 25 -8z m-3053 -20 c-3 -3 -12 -4 -19 -1 -8 3 -5
6 6 6 11 1 17 -2 13 -5z m123 -4 c0 -5 -4 -10 -10 -10 -5 0 -10 5 -10 10 0 6
5 10 10 10 6 0 10 -4 10 -10z m805 -15 c77 -8 194 -19 260 -25 66 -6 128 -13
138 -16 22 -7 22 -43 0 -51 -9 -4 -125 3 -257 16 -399 37 -436 44 -436 87 0
16 29 15 295 -11z m308 18 c-7 -2 -19 -2 -25 0 -7 3 -2 5 12 5 14 0 19 -2 13
-5z m115 -7 c3 -3 -18 -6 -46 -6 -29 0 -52 5 -52 10 0 10 87 6 98 -4z m617 -6
c77 -5 169 -12 205 -15 36 -3 124 -10 195 -15 72 -6 150 -14 175 -20 25 -5 62
-12 83 -15 51 -8 47 -21 -9 -29 -72 -9 -146 -7 -314 10 -85 9 -195 18 -245 19
-116 3 -214 15 -221 26 -3 5 -20 9 -37 9 -23 1 -38 8 -51 27 l-19 25 49 -6
c27 -3 112 -10 189 -16z m-440 -9 c3 -6 -4 -9 -15 -8 -11 1 -20 5 -20 9 0 11
28 10 35 -1z m-5262 -117 c-21 -38 -60 -116 -86 -174 -27 -58 -58 -123 -68
-145 l-19 -40 5 55 c4 30 12 71 20 90 7 19 18 54 24 78 7 23 16 40 20 37 5 -2
11 9 15 26 3 17 10 28 16 24 5 -3 10 1 10 9 0 16 12 33 65 92 42 48 42 29 -2
-52z m128 63 c-10 -9 -11 -8 -5 6 3 10 9 15 12 12 3 -3 0 -11 -7 -18z m1819 3
c0 -5 -4 -10 -10 -10 -5 0 -10 5 -10 10 0 6 5 10 10 10 6 0 10 -4 10 -10z
m3315 -25 c0 -29 -45 -42 -83 -23 -26 13 -32 14 -36 2 -8 -20 -26 -17 -26 5 0
28 51 49 102 42 34 -5 43 -10 43 -26z m180 1 c16 -12 17 -16 6 -30 -16 -19
-81 -22 -100 -3 -10 10 -15 8 -28 -8 -10 -13 -17 -16 -20 -8 -7 19 -2 27 26
45 32 20 91 23 116 4z m-5331 -11 c-4 -8 -10 -15 -15 -15 -5 0 -9 -4 -9 -10 0
-5 -19 -40 -42 -77 -23 -38 -56 -100 -75 -140 -18 -40 -37 -75 -43 -78 -11 -7
31 107 62 168 40 80 143 209 122 152z m803 -1 c-3 -3 -12 -4 -19 -1 -8 3 -5 6
6 6 11 1 17 -2 13 -5z m4760 -17 c15 -15 15 -17 -11 -27 -30 -11 -79 -13 -113
-4 -16 5 -23 14 -23 31 0 25 1 25 65 21 43 -3 71 -10 82 -21z m-4565 -11 c-5
-20 -4 -20 15 -3 21 18 48 24 38 7 -3 -5 0 -7 8 -4 8 3 18 1 22 -5 7 -12 45
-15 45 -3 0 4 14 7 30 7 20 0 29 -4 25 -12 -4 -12 29 -19 65 -14 26 4 44 3 70
-3 14 -3 45 -9 69 -12 25 -3 49 -8 55 -11 6 -4 7 1 2 12 -7 18 -6 18 13 1 16
-15 37 -18 106 -18 47 0 85 -4 85 -9 0 -5 8 -9 18 -9 14 0 15 2 2 10 -13 8
-12 10 3 10 9 0 17 -5 17 -11 0 -7 12 -10 30 -7 17 3 30 2 30 -2 0 -4 29 -5
66 -3 37 2 74 -2 87 -8 16 -9 22 -9 25 1 4 10 6 10 12 -1 6 -9 13 -10 22 -3 7
6 31 9 53 8 22 -2 52 -3 66 -3 18 -1 28 -8 32 -21 5 -20 37 -29 37 -10 0 10
56 8 67 -3 3 -4 18 -7 32 -6 l26 1 -25 8 -25 8 27 1 c15 1 31 -6 35 -14 6 -10
13 -11 23 -5 13 8 12 10 -2 10 -10 0 -18 5 -18 10 0 6 6 10 13 10 20 0 58 -30
52 -41 -4 -5 1 -9 9 -9 9 0 16 4 16 9 0 6 12 6 30 -1 17 -5 42 -8 55 -6 13 3
22 2 20 -2 -3 -4 2 -13 10 -20 12 -10 21 -10 41 -1 31 14 44 14 24 0 -11 -7 6
-10 60 -8 110 3 118 1 125 -22 5 -15 9 -18 15 -9 6 9 14 8 38 -4 35 -18 78
-23 52 -6 -13 8 -13 10 1 10 9 0 19 -7 23 -15 3 -8 10 -15 16 -15 6 0 8 5 5
10 -11 17 5 32 21 20 7 -7 29 -12 49 -13 19 -1 30 -4 24 -8 -6 -3 13 -9 42
-12 29 -4 56 -3 59 1 3 4 20 7 38 8 24 1 30 -2 20 -8 -8 -6 2 -8 30 -4 26 4
41 3 38 -3 -3 -5 1 -11 9 -15 8 -3 17 -1 20 4 3 5 12 7 20 3 9 -3 22 0 29 6
11 10 17 8 26 -6 8 -13 13 -15 17 -5 4 10 8 10 19 1 11 -9 14 -9 14 1 0 9 4 9
17 -1 13 -11 17 -11 20 -1 3 6 11 12 19 12 9 0 12 -4 9 -10 -3 -6 1 -7 9 -4 9
3 16 1 16 -6 0 -7 8 -9 20 -5 11 3 25 3 32 -2 22 -13 79 -10 73 5 -2 6 0 12 5
12 6 0 10 -6 10 -13 0 -9 21 -12 75 -12 74 0 95 -12 44 -26 -22 -7 -23 -7 -2
-8 12 -1 29 6 38 16 10 10 19 12 23 6 8 -11 52 -11 70 0 7 5 12 4 12 -2 0 -6
7 -11 15 -11 18 0 18 1 5 34 -7 21 -6 26 5 26 8 0 14 -5 13 -11 -2 -6 8 -19
22 -30 21 -16 32 -18 70 -10 25 5 53 12 63 16 13 5 17 2 17 -14 0 -13 6 -21
16 -21 11 0 15 6 11 20 -7 26 8 25 35 -2 17 -17 20 -18 15 -4 -9 23 0 37 18
30 8 -4 12 -11 9 -16 -9 -14 17 -29 38 -22 9 2 19 0 23 -6 4 -7 11 -7 18 -2 7
5 22 4 37 -4 l25 -14 -30 -1 c-25 0 -27 -2 -10 -9 11 -4 24 -4 30 1 5 5 17 9
28 9 10 0 15 5 12 10 -3 6 -2 10 3 10 18 0 21 -29 4 -39 -9 -6 -12 -11 -5 -11
20 0 52 32 46 46 -3 9 2 14 12 14 11 0 15 -5 11 -15 -3 -8 1 -21 9 -29 11 -11
12 -15 2 -19 -6 -2 0 -6 16 -9 18 -3 27 -1 27 7 0 16 58 25 88 14 14 -5 22 -5
22 2 0 6 14 1 31 -12 26 -19 30 -19 27 -4 -2 11 6 21 20 26 13 5 22 5 22 -1 0
-6 -6 -10 -12 -11 -7 0 -4 -4 7 -9 11 -5 35 -6 53 -3 19 3 32 1 32 -6 0 -6 7
-8 15 -5 8 4 15 1 15 -4 0 -6 -8 -12 -17 -14 -10 -2 4 -5 31 -5 29 -1 52 -7
57 -15 5 -7 9 -8 10 -3 0 6 4 1 9 -10 6 -13 9 -15 9 -5 0 8 -3 21 -8 29 -7 10
-4 19 7 28 14 10 11 11 -17 3 -37 -10 -31 3 6 14 16 5 25 2 33 -14 8 -15 17
-19 31 -15 10 4 19 2 19 -3 0 -5 -10 -13 -22 -17 -20 -6 -21 -8 -5 -12 10 -3
26 2 36 11 20 18 36 21 26 6 -7 -12 8 -14 19 -2 4 4 18 7 31 7 16 1 21 -3 17
-15 -5 -13 -3 -13 11 -2 9 8 22 12 29 9 9 -4 7 -6 -3 -6 -9 -1 -19 -7 -22 -15
-5 -11 0 -13 24 -6 18 5 27 5 24 -1 -11 -17 16 -9 37 11 14 13 24 16 28 9 13
-20 62 -39 101 -39 21 0 40 -4 43 -8 3 -5 19 -7 36 -4 16 2 37 -1 45 -8 10 -9
15 -9 15 -1 0 11 34 10 45 -1 3 -3 19 -4 35 -2 22 3 28 0 24 -11 -6 -14 2 -16
56 -17 3 -1 17 2 32 6 17 4 32 1 42 -9 9 -10 17 -11 21 -5 7 11 35 -12 35 -29
0 -6 8 -11 18 -11 14 0 15 2 2 10 -12 8 -11 10 8 10 12 0 22 -4 22 -10 0 -5
18 -10 40 -10 24 0 40 5 40 12 0 6 3 8 7 5 3 -4 -1 -15 -11 -26 -15 -17 -15
-19 -1 -25 9 -3 14 -2 11 2 -3 4 4 13 15 20 16 10 19 9 20 -5 0 -10 3 -13 5
-7 3 7 14 10 25 7 15 -4 17 -8 8 -19 -18 -22 -4 -27 30 -10 35 18 99 23 68 5
-9 -5 -22 -7 -27 -4 -6 3 -10 2 -10 -3 0 -16 13 -22 26 -11 13 11 81 8 102 -5
6 -4 12 -2 12 3 0 6 14 11 30 11 17 0 30 -4 30 -10 0 -5 -9 -10 -20 -10 -11 0
-20 -5 -20 -11 0 -6 6 -9 14 -6 24 10 26 -5 3 -23 -12 -10 -20 -20 -17 -22 3
-1 18 -10 34 -18 16 -8 30 -23 32 -33 4 -27 14 -34 14 -11 0 11 5 25 11 31 7
7 6 12 -6 17 -11 4 -14 2 -9 -7 4 -6 -2 -4 -13 6 -11 9 -25 17 -31 17 -7 0
-12 5 -12 10 0 7 7 7 22 -1 18 -10 20 -9 15 5 -4 9 -2 16 2 16 5 0 11 -7 15
-15 3 -8 11 -12 19 -9 10 3 14 -4 15 -26 0 -17 -4 -30 -11 -30 -7 0 -6 -4 3
-10 13 -9 13 -11 0 -19 -8 -6 -11 -13 -7 -17 4 -4 16 1 27 11 20 18 20 17 20
-11 0 -19 -3 -24 -8 -16 -12 18 -45 4 -37 -16 3 -9 3 -13 -1 -10 -3 4 -12 1
-19 -5 -11 -10 -10 -16 3 -32 12 -15 11 -15 -8 2 -24 22 -24 23 -5 37 16 12
18 17 8 27 -11 11 -13 11 -13 0 0 -15 -24 -41 -38 -41 -5 0 -15 -7 -22 -15 -9
-10 -9 -15 -1 -15 6 0 11 -5 11 -11 0 -16 -20 1 -30 26 -5 12 -17 25 -28 28
-14 3 -19 1 -15 -9 2 -7 11 -10 20 -7 11 4 14 1 11 -13 -3 -15 -12 -19 -41
-19 -20 0 -35 -4 -33 -10 1 -5 15 -9 30 -7 18 2 25 -1 21 -7 -3 -6 -13 -11
-21 -11 -8 0 -17 -7 -20 -15 -4 -8 -11 -15 -17 -15 -7 0 -7 4 1 12 7 7 12 16
12 22 0 6 -5 5 -12 -2 -14 -14 -48 -16 -48 -2 0 25 -56 98 -84 109 -31 12
-157 24 -366 36 -63 3 -122 8 -130 10 -8 2 -71 7 -140 10 -69 3 -168 10 -220
15 -52 5 -174 14 -270 20 -96 6 -223 15 -282 20 -59 6 -111 9 -115 8 -8 -2
-52 1 -433 33 -249 20 -436 36 -510 44 -53 5 -351 32 -500 45 -110 9 -403 40
-625 65 -71 8 -152 17 -180 20 -27 3 -108 12 -180 19 -209 23 -568 66 -595 71
-14 3 -59 10 -100 15 -41 5 -122 17 -180 25 -58 9 -123 18 -145 21 -22 3 -71
10 -110 16 -38 6 -81 12 -95 13 -14 2 -25 4 -25 5 0 0 -20 3 -45 5 -25 2 -63
7 -85 10 -22 3 -74 10 -116 15 -99 12 -126 19 -133 35 -3 10 0 12 11 8 11 -4
14 -2 9 5 -8 14 -47 16 -44 3 2 -5 -1 -9 -7 -10 -5 0 -10 6 -10 14 0 8 -4 15
-10 14 -5 0 -10 -8 -9 -19 0 -10 -3 -17 -7 -15 -11 8 -17 55 -7 61 5 3 7 12 4
20 -3 8 1 14 9 14 8 0 15 -5 15 -11 0 -5 5 -7 11 -4 6 5 4 11 -7 19 -13 10
-14 17 -7 31 7 12 13 14 17 6 9 -14 26 -14 26 0 0 5 -4 7 -10 4 -5 -3 -10 1
-10 9 0 18 20 32 20 14 1 -8 5 -7 14 5 11 14 15 15 19 5 4 -8 6 -7 6 5 1 14 4
15 21 5 10 -7 23 -9 27 -5 4 5 1 12 -6 16 -18 11 2 23 24 15 9 -4 14 -13 11
-20 -6 -17 20 -19 30 -3 4 6 20 8 39 5 35 -7 68 1 60 14 -7 11 45 17 75 10 14
-4 40 -2 58 2 22 6 45 6 64 -1 37 -13 62 -13 33 -1 -12 5 23 7 88 4 66 -3 107
-1 107 5 0 5 -17 12 -37 14 -33 4 -32 4 8 4 42 -1 46 -3 41 -21z m4408 4 c0
-20 -25 -38 -37 -26 -5 5 24 46 34 46 1 0 3 -9 3 -20z m-4293 4 c-3 -3 -12 -4
-19 -1 -8 3 -5 6 6 6 11 1 17 -2 13 -5z m1071 0 c12 -4 22 -11 22 -16 0 -14
-53 -5 -58 10 -4 13 2 15 36 6z m62 2 c0 -2 -7 -9 -15 -16 -12 -10 -15 -10
-15 4 0 9 7 16 15 16 8 0 15 -2 15 -4z m51 -8 c-1 -5 -3 -7 -4 -5 -2 1 -11 -4
-21 -12 -21 -18 -33 -7 -16 14 13 16 42 17 41 3z m459 -4 c0 -13 -29 -29 -45
-24 -18 5 -50 7 -102 9 -38 1 -53 5 -53 15 0 10 22 13 100 12 68 -1 100 -5
100 -12z m-380 -3 c0 -9 -24 -21 -42 -21 -6 0 -6 6 2 15 14 16 40 20 40 6z
m3540 -34 c30 -4 86 -9 124 -11 38 -3 71 -8 74 -10 2 -3 -2 -12 -11 -20 -8 -8
-16 -13 -18 -11 -4 4 -129 13 -187 14 -19 1 -31 5 -27 11 3 6 1 10 -4 10 -6 0
-11 -4 -11 -8 0 -10 -61 -9 -77 1 -7 5 -13 14 -13 21 0 13 43 14 150 3z m300
-32 c0 -24 -17 -35 -56 -35 -41 0 -57 14 -38 33 6 6 94 8 94 2z m610 -19 c0
-3 -4 -8 -10 -11 -5 -3 -10 -1 -10 4 0 6 5 11 10 11 6 0 10 -2 10 -4z m-2938
-29 c9 -18 11 -19 20 -4 9 18 48 24 48 8 0 -6 17 -7 38 -4 34 6 36 5 23 -10
-10 -13 -30 -17 -82 -17 -40 0 -69 4 -69 10 0 6 -12 8 -27 6 -35 -7 -48 3 -27
19 27 19 63 15 76 -8z m208 -22 c0 -8 -6 -15 -14 -15 -8 0 -16 7 -20 15 -4 10
1 15 14 15 11 0 20 -7 20 -15z m2750 -15 c0 -5 -4 -10 -10 -10 -5 0 -10 5 -10
10 0 6 5 10 10 10 6 0 10 -4 10 -10z m-2530 -10 c0 -5 -2 -10 -4 -10 -3 0 -8
5 -11 10 -3 6 -1 10 4 10 6 0 11 -4 11 -10z m105 -10 c-3 -5 -10 -10 -16 -10
-5 0 -9 5 -9 10 0 6 7 10 16 10 8 0 12 -4 9 -10z m2387 -28 c-6 -2 -8 -11 -5
-20 3 -12 2 -13 -4 -4 -7 9 -13 6 -23 -15 -7 -15 -13 -31 -12 -35 1 -5 -2 -8
-8 -8 -18 0 -11 36 11 56 12 10 26 30 32 44 9 23 11 23 15 5 2 -10 0 -21 -6
-23z m-2302 19 c0 -6 -4 -13 -10 -16 -5 -3 -10 1 -10 9 0 9 5 16 10 16 6 0 10
-4 10 -9z m35 -1 c3 -5 2 -10 -4 -10 -5 0 -13 5 -16 10 -3 6 -2 10 4 10 5 0
13 -4 16 -10z m40 0 c-3 -5 -11 -10 -16 -10 -6 0 -7 5 -4 10 3 6 11 10 16 10
6 0 7 -4 4 -10z m1355 -20 c0 -5 -4 -10 -10 -10 -5 0 -10 5 -10 10 0 6 5 10
10 10 6 0 10 -4 10 -10z m813 -5 c-3 -9 -8 -14 -10 -11 -3 3 -2 9 2 15 9 16
15 13 8 -4z m-3703 -5 c0 -5 -7 -10 -15 -10 -8 0 -15 5 -15 10 0 6 7 10 15 10
8 0 15 -4 15 -10z m3160 0 c0 -5 -4 -10 -9 -10 -6 0 -13 5 -16 10 -3 6 1 10 9
10 9 0 16 -4 16 -10z m120 -10 c0 -5 -4 -10 -10 -10 -5 0 -10 5 -10 10 0 6 5
10 10 10 6 0 10 -4 10 -10z m-2030 -10 c0 -5 -7 -10 -16 -10 -8 0 -12 5 -9 10
3 6 10 10 16 10 5 0 9 -4 9 -10z m2150 0 c0 -5 -2 -10 -4 -10 -3 0 -8 5 -11
10 -3 6 -1 10 4 10 6 0 11 -4 11 -10z m620 0 c0 -5 -5 -10 -11 -10 -5 0 -7 5
-4 10 3 6 8 10 11 10 2 0 4 -4 4 -10z m-6750 -10 c0 -5 -5 -10 -11 -10 -5 0
-7 5 -4 10 3 6 8 10 11 10 2 0 4 -4 4 -10z m6364 -26 c22 -9 20 -20 -4 -20
-11 0 -20 6 -20 13 0 15 2 15 24 7z m-2017 -50 c-3 -3 -12 -4 -19 -1 -8 3 -5
6 6 6 11 1 17 -2 13 -5z m98 -24 c3 -5 1 -10 -4 -10 -6 0 -11 5 -11 10 0 6 2
10 4 10 3 0 8 -4 11 -10z m455 6 c0 -3 -4 -8 -10 -11 -5 -3 -10 -1 -10 4 0 6
5 11 10 11 6 0 10 -2 10 -4z m-4327 -13 c-7 -2 -21 -2 -30 0 -10 3 -4 5 12 5
17 0 24 -2 18 -5z m3937 -17 c0 -11 -19 -15 -25 -6 -3 5 1 10 9 10 9 0 16 -2
16 -4z m-3550 -26 c52 -5 212 -23 355 -39 143 -17 303 -35 355 -41 329 -37
1221 -123 1725 -165 99 -8 227 -19 285 -25 58 -5 179 -14 270 -20 272 -17 447
-30 605 -45 83 -8 222 -19 310 -25 412 -27 517 -38 509 -52 -5 -8 -59 -9 -173
-4 -296 12 -751 36 -976 52 -121 8 -281 19 -356 24 -153 11 -365 29 -769 65
-513 47 -817 79 -1270 135 -166 20 -357 50 -390 60 -34 11 -296 48 -505 71
-55 6 -102 13 -104 15 -6 6 24 5 129 -6z m4010 6 c0 -3 -4 -8 -10 -11 -5 -3
-10 -1 -10 4 0 6 5 11 10 11 6 0 10 -2 10 -4z m97 -62 c-3 -3 -12 -4 -19 -1
-8 3 -5 6 6 6 11 1 17 -2 13 -5z m173 -4 c0 -5 -4 -10 -9 -10 -6 0 -13 5 -16
10 -3 6 1 10 9 10 9 0 16 -4 16 -10z m23 -37 c-7 -2 -19 -2 -25 0 -7 3 -2 5
12 5 14 0 19 -2 13 -5z m197 -13 c0 -5 -15 -10 -32 -9 -31 1 -32 1 -8 9 35 11
40 11 40 0z m830 -25 c0 -8 -4 -15 -10 -15 -5 0 -10 7 -10 15 0 8 5 15 10 15
6 0 10 -7 10 -15z m57 -94 c-1 -55 -4 -98 -7 -96 -3 2 -5 -18 -5 -43 1 -26 -4
-53 -10 -61 -5 -8 -9 -16 -7 -18 7 -10 0 -63 -8 -58 -6 4 -10 -6 -10 -22 0
-15 -7 -41 -15 -57 -13 -25 -13 -27 0 -22 12 4 13 2 5 -12 -14 -24 -36 -52
-42 -52 -5 0 -2 86 6 180 2 25 11 74 19 110 19 80 31 143 29 153 -1 4 3 7 8 7
6 0 10 9 10 20 0 18 19 70 26 70 2 0 2 -45 1 -99z m-590 47 c-3 -8 -6 -5 -6 6
-1 11 2 17 5 13 3 -3 4 -12 1 -19z m478 -240 c-52 -261 -64 -304 -61 -212 2
33 5 65 7 70 2 5 4 27 4 49 0 22 4 43 9 46 5 4 11 30 14 58 2 28 8 51 13 51 5
0 9 11 9 25 0 16 -6 25 -15 25 -8 0 -15 5 -15 11 0 6 7 9 15 5 10 -4 15 1 15
14 0 11 4 20 9 20 5 0 12 17 16 37 4 21 9 42 13 47 17 29 9 -36 -33 -246z
m-165 162 c0 -5 -5 -10 -11 -10 -5 0 -7 5 -4 10 3 6 8 10 11 10 2 0 4 -4 4
-10z m130 -10 c0 -5 -4 -10 -10 -10 -5 0 -10 5 -10 10 0 6 5 10 10 10 6 0 10
-4 10 -10z m-193 -52 c-3 -8 -6 -5 -6 6 -1 11 2 17 5 13 3 -3 4 -12 1 -19z
m-17 3 c0 -5 -7 -11 -14 -14 -10 -4 -13 -1 -9 9 6 15 23 19 23 5z m10 -31 c0
-5 -4 -10 -10 -10 -5 0 -10 5 -10 10 0 6 5 10 10 10 6 0 10 -4 10 -10z m-125
-119 c3 -5 1 -12 -5 -16 -5 -3 -10 1 -10 9 0 18 6 21 15 7z m-60 -50 c-3 -6
-16 -11 -28 -11 -21 0 -21 1 3 13 27 15 36 14 25 -2z m55 6 c0 -7 -9 -13 -20
-13 -25 0 -26 13 -2 19 9 3 18 5 20 6 1 0 2 -5 2 -12z m-180 -27 c0 -5 -5 -10
-11 -10 -5 0 -7 5 -4 10 3 6 8 10 11 10 2 0 4 -4 4 -10z m72 -7 c4 -13 -1 -18
-18 -18 -21 0 -21 1 -7 18 9 9 17 17 18 17 2 0 5 -8 7 -17z m145 -5 c-3 -8 -6
-5 -6 6 -1 11 2 17 5 13 3 -3 4 -12 1 -19z m-87 -7 c0 -6 -5 -13 -12 -17 -6
-4 -8 -3 -4 4 3 6 -2 13 -11 15 -14 4 -13 5 5 6 12 0 22 -3 22 -8z m-138 -53
c-7 -7 -12 -8 -12 -2 0 14 12 26 19 19 2 -3 -1 -11 -7 -17z m578 -78 c0 -5 -7
-7 -15 -4 -8 4 -15 8 -15 10 0 2 7 4 15 4 8 0 15 -4 15 -10z m-4693 -996 c-3
-3 -12 -4 -19 -1 -8 3 -5 6 6 6 11 1 17 -2 13 -5z m490 -50 c-3 -3 -12 -4 -19
-1 -8 3 -5 6 6 6 11 1 17 -2 13 -5z m643 -84 c0 -5 -5 -10 -11 -10 -5 0 -7 5
-4 10 3 6 8 10 11 10 2 0 4 -4 4 -10z m580 -65 c0 -8 -8 -15 -17 -14 -11 0
-13 3 -5 6 6 2 10 9 6 14 -3 5 0 9 5 9 6 0 11 -7 11 -15z m118 -1 c12 -4 22
-13 22 -21 0 -12 -2 -12 -16 1 -18 18 -40 21 -49 6 -3 -5 -11 -10 -17 -10 -7
0 -6 6 2 15 14 16 23 18 58 9z m182 -29 c0 -8 -4 -15 -10 -15 -5 0 -7 7 -4 15
4 8 8 15 10 15 2 0 4 -7 4 -15z m104 -5 c-6 -6 -21 -6 -39 -1 -30 9 -30 9 10
10 25 1 36 -2 29 -9z m-1951 -997 c-7 -2 -19 -2 -25 0 -7 3 -2 5 12 5 14 0 19
-2 13 -5z m582 -73 c3 -5 1 -10 -4 -10 -6 0 -11 5 -11 10 0 6 2 10 4 10 3 0 8
-4 11 -10z m52 -16 c-3 -3 -12 -4 -19 -1 -8 3 -5 6 6 6 11 1 17 -2 13 -5z
m760 -80 c-3 -3 -12 -4 -19 -1 -8 3 -5 6 6 6 11 1 17 -2 13 -5z m146 -11 c-7
-2 -19 -2 -25 0 -7 3 -2 5 12 5 14 0 19 -2 13 -5z m94 -9 c-3 -3 -12 -4 -19
-1 -8 3 -5 6 6 6 11 1 17 -2 13 -5z m146 -11 c-7 -2 -19 -2 -25 0 -7 3 -2 5
12 5 14 0 19 -2 13 -5z m185 -10 c-16 -2 -40 -2 -55 0 -16 2 -3 4 27 4 30 0
43 -2 28 -4z m202 -7 c8 -2 -17 -4 -57 -5 -39 0 -74 3 -77 7 -4 7 98 6 134 -2z
m1613 -3 c-7 -2 -21 -2 -30 0 -10 3 -4 5 12 5 17 0 24 -2 18 -5z m54 1 c-3 -3
-12 -4 -19 -1 -8 3 -5 6 6 6 11 1 17 -2 13 -5z m-1450 -10 c-3 -3 -12 -4 -19
-1 -8 3 -5 6 6 6 11 1 17 -2 13 -5z m696 -11 c-7 -2 -21 -2 -30 0 -10 3 -4 5
12 5 17 0 24 -2 18 -5z m70 0 c-7 -2 -21 -2 -30 0 -10 3 -4 5 12 5 17 0 24 -2
18 -5z"/>
<path d="M2728 6893 c7 -3 16 -2 19 1 4 3 -2 6 -13 5 -11 0 -14 -3 -6 -6z"/>
<path d="M2680 6859 c0 -5 9 -9 20 -9 11 0 20 4 20 8 0 4 -9 8 -20 9 -11 1
-20 -2 -20 -8z"/>
<path d="M7603 6453 c9 -2 25 -2 35 0 9 3 1 5 -18 5 -19 0 -27 -2 -17 -5z"/>
<path d="M7710 6440 c19 -13 30 -13 30 0 0 6 -10 10 -22 10 -19 0 -20 -2 -8
-10z"/>
<path d="M1470 6190 c0 -6 7 -10 15 -10 8 0 15 2 15 4 0 2 -7 6 -15 10 -8 3
-15 1 -15 -4z"/>
<path d="M3865 6110 c3 -5 16 -10 28 -10 18 0 19 2 7 10 -20 13 -43 13 -35 0z"/>
<path d="M5188 5973 c7 -3 16 -2 19 1 4 3 -2 6 -13 5 -11 0 -14 -3 -6 -6z"/>
<path d="M5425 5950 c3 -5 8 -10 11 -10 2 0 4 5 4 10 0 6 -5 10 -11 10 -5 0
-7 -4 -4 -10z"/>
<path d="M5715 5920 c3 -5 14 -10 23 -10 15 0 15 2 2 10 -20 13 -33 13 -25 0z"/>
<path d="M6218 5873 c7 -3 16 -2 19 1 4 3 -2 6 -13 5 -11 0 -14 -3 -6 -6z"/>
<path d="M6375 5840 c3 -5 8 -10 11 -10 2 0 4 5 4 10 0 6 -5 10 -11 10 -5 0
-7 -4 -4 -10z"/>
<path d="M6820 5780 c0 -5 7 -10 16 -10 8 0 12 5 9 10 -3 6 -10 10 -16 10 -5
0 -9 -4 -9 -10z"/>
<path d="M6935 5720 c-3 -5 -1 -10 4 -10 6 0 11 5 11 10 0 6 -2 10 -4 10 -3 0
-8 -4 -11 -10z"/>
<path d="M6990 5720 c0 -5 5 -10 11 -10 5 0 7 5 4 10 -3 6 -8 10 -11 10 -2 0
-4 -4 -4 -10z"/>
<path d="M7280 5655 c10 -12 10 -15 0 -15 -8 0 -11 -3 -7 -6 3 -3 10 -3 16 0
12 8 3 36 -11 36 -6 0 -5 -6 2 -15z"/>
<path d="M7351 5571 c-7 -5 -12 -14 -10 -20 3 -7 11 -3 21 9 18 21 13 26 -11
11z"/>
<path d="M7368 5539 c-22 -23 -24 -36 -3 -19 8 6 18 9 24 6 5 -3 7 3 4 14 -3
11 -6 20 -7 19 0 0 -9 -9 -18 -20z"/>
<path d="M7367 5503 c-4 -3 -7 -13 -7 -22 1 -13 3 -13 11 2 11 19 8 33 -4 20z"/>
<path d="M7316 5485 c4 -8 10 -12 15 -9 11 6 2 24 -11 24 -5 0 -7 -7 -4 -15z"/>
<path d="M1960 7024 c0 -11 5 -14 16 -10 9 3 20 6 25 6 5 0 9 5 9 10 0 6 -11
10 -25 10 -16 0 -25 -6 -25 -16z"/>
</g>
</svg>
